<?xml version="1.0" encoding="utf-8"?>
<!-- Generator: Adobe Illustrator 23.0.1, SVG Export Plug-In . SVG Version: 6.00 Build 0)  -->
<svg version="1.1" id="Layer_1" xmlns="http://www.w3.org/2000/svg" xmlns:xlink="http://www.w3.org/1999/xlink" x="0px" y="0px"
	 viewBox="0 0 18.57 20.44" style="enable-background:new 0 0 18.57 20.44;" xml:space="preserve">
<style type="text/css">
	.st0{fill:#010101;}
</style>
<g>
	<path class="st0" d="M18.36,1.41c-0.13-0.08-0.29-0.09-0.43-0.02L9.29,5.72L0.64,1.4C0.5,1.33,0.34,1.33,0.21,1.41
		C0.08,1.5,0,1.64,0,1.79V15.5c0,0.17,0.09,0.32,0.24,0.4l8.84,4.42c0,0,0.01,0,0.01,0c0.06,0.03,0.12,0.04,0.19,0.04
		c0.07,0,0.13-0.02,0.19-0.04c0,0,0.01,0,0.01,0l8.84-4.42c0.15-0.08,0.24-0.23,0.24-0.4V1.79C18.57,1.64,18.49,1.5,18.36,1.41z
		 M0.88,2.51l7.96,3.98V19.2l-7.96-3.98V2.51z M17.69,15.22L9.73,19.2V6.49l7.96-3.98V15.22z"/>
	<path class="st0" d="M2.01,0.84l7.07,3.58c0.06,0.03,0.13,0.05,0.2,0.05s0.14-0.02,0.2-0.05l7.07-3.58
		c0.22-0.11,0.31-0.38,0.2-0.59c-0.11-0.22-0.38-0.31-0.59-0.2L9.28,3.53L2.41,0.05c-0.22-0.11-0.48-0.02-0.59,0.2
		C1.7,0.46,1.79,0.73,2.01,0.84z"/>
</g>
</svg>
