<?xml version="1.0" encoding="utf-8"?>
<!-- Generator: Adobe Illustrator 23.0.1, SVG Export Plug-In . SVG Version: 6.00 Build 0)  -->
<svg version="1.1" id="Laag_1" xmlns="http://www.w3.org/2000/svg" xmlns:xlink="http://www.w3.org/1999/xlink" x="0px" y="0px"
	 viewBox="0 0 21.07 38.92" style="enable-background:new 0 0 21.07 38.92;" xml:space="preserve">
<style type="text/css">
	.st0{fill:#FFFFFF;}
</style>
<g>
	<path class="st0" d="M2.53,38.92l15.99,0c1.4,0,2.54-1.14,2.54-2.53l0.01-29.88c0-1.4-1.13-2.54-2.53-2.54l-3.85,0V0h-8.3v3.97
		l-3.85,0c-1.4,0-2.53,1.14-2.53,2.54L0,36.38C0,37.78,1.14,38.92,2.53,38.92z M12.76,1.93v2.04H8.32V1.93H12.76z M1.93,36.39
		L1.94,6.5c0-0.34,0.26-0.61,0.6-0.61L18.53,5.9c0.33,0,0.61,0.27,0.61,0.61l-0.01,29.88c0,0.33-0.27,0.6-0.61,0.6l-15.99,0
		C2.2,36.99,1.93,36.72,1.93,36.39z"/>
</g>
<path class="st0" d="M13.15,11.51c0.02-0.27-0.14-0.53-0.39-0.64l-0.5-0.21l-0.31,0.39L4.97,22.28h3.7v8.22
	c-0.01,0.26,0.13,0.51,0.38,0.64l0.5,0.22l0.33-0.4l6.23-11.87h-2.96V11.51z"/>
</svg>
