<?xml version="1.0" encoding="utf-8"?>
<!-- Generator: Adobe Illustrator 23.0.1, SVG Export Plug-In . SVG Version: 6.00 Build 0)  -->
<svg version="1.1" id="Layer_1" xmlns="http://www.w3.org/2000/svg" xmlns:xlink="http://www.w3.org/1999/xlink" x="0px" y="0px"
	 viewBox="0 0 211.6 38.3" style="enable-background:new 0 0 211.6 38.3;" xml:space="preserve">
<style type="text/css">
	.st0{fill:#FFFFFF;}
</style>
<g>
	<g>
		<path class="st0" d="M30.6,8.6c0.8-4.2-2-6.9-7.4-6.9h-3.7h-1.7H9.2l-5,15.4h2.1L0,31.7l16.8-19.2h-4.2l3.6-5.7h4.9
			c2.1,0,3.1,1,2.8,2.9c-0.3,1.8-1.7,2.8-3.8,2.8h-0.7l-4.1,4.6h4.4c2.1,0,3.3,1.1,2.9,3c-0.3,1.9-1.7,2.9-3.9,2.9h-8.6l-4.5,5.1H19
			c5.6,0,9.3-2.8,10.1-7.2c0.5-3-1-5.7-4-6.4C27.8,13.9,30,11.8,30.6,8.6z"/>
		<polygon class="st0" points="10.1,23.1 5.6,28.3 5.6,28.3 10.1,23.1 		"/>
	</g>
	<g>
		<path class="st0" d="M41.8,6.6c3.1,0,5,1.5,5.8,3.3l0.5-3h6.3l-3.8,21.3h-6.3l0.5-3c-1.5,1.9-3.9,3.3-7,3.3c-5,0-8.3-4.3-7.1-11
			C31.9,10.8,36.7,6.6,41.8,6.6z M42.6,12.3c-2.4,0-4.8,1.8-5.5,5.2s1.2,5.3,3.6,5.3c2.4,0,4.9-1.9,5.5-5.3
			C46.8,14.2,45,12.3,42.6,12.3z"/>
		<path class="st0" d="M57.8,12.3h-2.5l1-5.4h2.5l0.9-5.2H66l-0.9,5.2h4.2l-1,5.4h-4.2l-1.5,8.5c-0.2,1.3,0.2,1.8,1.6,1.8h2.3
			l-1,5.5h-3.2c-4.3,0-7-1.9-6-7.4L57.8,12.3z"/>
		<path class="st0" d="M72.3,12.3h-2.5l1-5.4h2.5l0.9-5.2h6.3l-0.9,5.2h4.2l-1,5.4h-4.2l-1.5,8.5c-0.2,1.3,0.2,1.8,1.6,1.8h2.3
			l-1,5.5h-3.2c-4.3,0-7-1.9-6-7.4L72.3,12.3z"/>
		<path class="st0" d="M91.8,28.5c-6.1,0-9.7-4.2-8.5-10.9c1.2-6.7,6.3-10.9,12.4-10.9c6,0,9.6,4.1,8.4,10.6
			c-0.1,0.6-0.3,1.3-0.4,1.9H89.3c-0.3,2.8,1.2,4.1,3.2,4.1c1.8,0,2.9-0.9,3.7-2.1h6.8C101.2,25.3,97,28.5,91.8,28.5z M90,15.5H98
			c0.4-2.3-1.1-3.7-3.2-3.7C92.7,11.8,90.8,13.1,90,15.5z"/>
		<path class="st0" d="M111.3,28.2H105l3.8-21.3h6.3l-0.6,3.5c1.8-2.3,4.4-3.8,7.2-3.8l-1.2,6.9h-1.7c-3,0-4.9,1.1-5.6,4.7
			L111.3,28.2z"/>
		<path class="st0" d="M139.1,6.9h6.9l-18.6,31.3h-6.8l6.7-10.8l-4.7-20.5h7.1l2.4,13.3L139.1,6.9z"/>
		<path class="st0" d="M160.4,6.6c5.1,0,8.4,4.2,7.2,10.9s-6,11-11.1,11c-3,0-5-1.4-5.8-3.3l-0.5,3h-6.3l5-28.2h6.3l-1.8,9.9
			C154.9,8.1,157.4,6.6,160.4,6.6z M157.5,12.3c-2.4,0-4.9,1.9-5.5,5.3c-0.6,3.4,1.2,5.3,3.6,5.3c2.4,0,4.9-1.9,5.5-5.3
			C161.7,14.1,159.9,12.3,157.5,12.3z"/>
		<path class="st0" d="M177.1,28.5c-6.1,0-9.9-4.2-8.7-10.9c1.2-6.7,6.7-10.9,12.7-10.9c6.1,0,10,4.2,8.8,10.9
			C188.7,24.3,183.2,28.5,177.1,28.5z M178.2,22.9c2.3,0,4.7-1.7,5.3-5.3c0.6-3.6-1.1-5.3-3.4-5.3c-2.3,0-4.6,1.7-5.3,5.3
			C174.2,21.2,175.9,22.9,178.2,22.9z"/>
		<path class="st0" d="M198,22.3l-4.4,5.9h-6.9l8.8-10.9L190.4,7h7.1l2.9,5.9l4.4-5.9h6.9l-8.9,10.7l5.2,10.5h-7.1L198,22.3z"/>
	</g>
</g>
</svg>
