<?xml version="1.0" encoding="utf-8"?>
<!-- Generator: Adobe Illustrator 23.0.1, SVG Export Plug-In . SVG Version: 6.00 Build 0)  -->
<svg version="1.1" xmlns="http://www.w3.org/2000/svg" xmlns:xlink="http://www.w3.org/1999/xlink" x="0px" y="0px"
	 viewBox="0 0 272.31 193.92" style="enable-background:new 0 0 272.31 193.92;" xml:space="preserve">
<style type="text/css">
	.st0{fill:#FFFFFF;}
</style>
<g id="Layer_2">
</g>
<g id="Layer_4">
	<g>
		<path class="st0" d="M201.37,91.34c0.02-0.12,1.87-12.27,3.11-20.75c1.3-8.86-7.33-12.64-7.42-12.68L48.22,19.91l0,0l-0.13-0.03
			l-0.43-0.11v0l-13.41-3.28c-0.06-0.01-1.44-0.26-3.05,0.5c-2.09,0.99-2.63,3.11-2.66,3.19c-0.21,0.76-5.24,18.78-4.79,23.66
			c0.48,5.25,4.4,6.69,4.58,6.75c0.03,0.01,0.28,0.08,0.69,0.2c1.9,0.56,6.95,2.06,9.95,2.97c0.01,0,0.01,0,0.02,0.01l0.3,0.09v0
			c52.68,15.96,141.4,42.83,148.63,45.03c1.21,0.37,2.39,0.56,3.5,0.56c7.33,0,9.88-7.93,9.91-8.02L201.37,91.34z M39.07,52.51
			l-0.12-0.04c-0.09-0.03-0.2-0.06-0.3-0.09l-0.07-0.02v0c-2.89-0.87-7.42-2.21-9.17-2.73c-0.41-0.12-0.67-0.2-0.69-0.2
			c-0.14-0.05-3.34-1.26-3.75-5.7c-0.43-4.67,4.7-23.04,4.75-23.23c0-0.02,0.45-1.67,2-2.41c0.75-0.35,1.43-0.43,1.88-0.43
			c0.23,0,0.38,0.02,0.4,0.02l14.11,3.46l148.5,37.91c0.8,0.35,7.79,3.66,6.66,11.37c-1.13,7.69-2.78,18.57-3.1,20.67
			c-0.31,0.95-3.27,9.25-11.89,6.62C179.4,95.01,47.38,55.03,39.07,52.51L39.07,52.51z"/>
		<path class="st0" d="M44.49,114.95c0.01,0.1,0.02,0.2,0.03,0.33c0.07,1.06,0.14,2.07,2.09,5.18c0.8,1.27,1.56,1.89,2.35,1.89
			c0.06,0,0.12,0,0.18-0.01c1.08-0.13,1.53-1.4,1.58-1.55l0.03-0.1l-0.57-15.35c-0.07-2.68-0.68-26.27-0.83-28.04
			c-0.09-1.04-0.36-1.68-0.82-1.97c-0.21-0.13-0.41-0.16-0.56-0.16l-2.7-0.9c-0.13-0.05-0.61-0.19-1.24,0.09
			c-0.78,0.35-0.87,1.33-0.88,1.46l0,0.04C43.15,76.25,44.39,113.78,44.49,114.95z"/>
		<path class="st0" d="M58.98,120.32c0.01,0.11,0.02,0.22,0.03,0.34c0.08,1.09,0.15,2.12,2.22,5.3c0.84,1.29,1.65,1.92,2.46,1.92
			c0.06,0,0.13,0,0.2-0.01c1.11-0.14,1.59-1.42,1.64-1.57l0.04-0.11l-0.61-15.71c-0.07-2.75-0.72-26.89-0.89-28.7
			c-0.09-1.04-0.37-1.7-0.84-2c-0.18-0.11-0.38-0.17-0.59-0.16l-2.89-0.93c-0.14-0.05-0.63-0.19-1.27,0.09
			c-0.82,0.35-0.91,1.35-0.92,1.49l0,0.05C57.59,81.9,58.87,119.15,58.98,120.32z"/>
		<path class="st0" d="M73.98,126.27c0.01,0.11,0.02,0.23,0.03,0.34c0.08,1.11,0.15,2.15,2.22,5.39c0.84,1.32,1.65,1.96,2.46,1.96
			c0.06,0,0.13,0,0.19-0.01c1.12-0.14,1.59-1.44,1.64-1.59l0.04-0.11l-0.61-15.99c-0.03-1.12-0.72-27.33-0.89-29.21
			c-0.09-1.06-0.37-1.73-0.85-2.03c-0.22-0.14-0.43-0.17-0.58-0.16l-2.89-0.94c-0.14-0.05-0.63-0.19-1.28,0.09
			c-0.81,0.35-0.91,1.37-0.92,1.51l0,0.04C72.6,87.17,73.87,125.08,73.98,126.27z"/>
		<path class="st0" d="M272.31,57.23c0-6.74-0.93-11.18-3.21-15.33c-2.4-4.37-8.49-6.51-8.76-6.6l-0.08-0.02
			C258.75,34.96,109.21,2.7,102.43,1.06c-7.03-1.7-10.88-0.85-10.91-0.84c-18.56,3.23-54,9.39-55.28,9.53l-0.07,0.01
			c-0.37,0.05-3.65,0.49-6.34,2.19c-4.84,3.06-5.93,9.03-5.94,9.09l-0.02,0.1c-0.67,3.29-4.02,19.82-4.77,22.61
			c-0.85,3.17-1.06,14.04-1.07,14.53l0.01,0.2c0.07,1,0.45,6.69,0.96,14.13c-7.33,2-15.54,4.25-16.49,4.56
			c-0.48,0.16-0.88,0.33-1.24,0.53C1,77.78,0.84,77.89,0.75,77.97L0.61,78.1l0.03,0.03C0.01,78.68-0.02,79.18,0,79.37
			c0.01,0.38,1.37,37.61,1.37,39.78c0,1.92,0.16,2.22,0.94,3.67c0.19,0.35,0.41,0.77,0.68,1.3c1.19,2.34,2.65,2.69,3.41,2.69
			c0.22,0,0.37-0.03,0.43-0.05l16.74-5.52c1.75,4.49,4.25,6.28,4.38,6.37l1.18,0.5c25.33,10.21,152.06,61.31,159.72,64.3
			c2.59,1.01,4.9,1.53,6.86,1.53c3.01,0,4.37-1.23,4.75-1.65c0.81-0.46,6.05-3.44,13.24-7.55l0.04,0.08l0.18-0.1
			c0.16-0.09,0.29-0.21,0.42-0.34c18.19-10.4,48.05-27.54,51.41-30.02c5.08-3.75,4.9-10.37,4.89-10.64
			C270.67,142.9,272.31,63.58,272.31,57.23z M27.24,71.5c1.81-0.5,3.13-0.87,3.61-1.01l2.5,0.93L6.24,79.1
			c-0.44-0.53-1.05-0.83-1.19-0.9c-0.02-0.01-0.35-0.13-0.8-0.27C8.47,76.73,21.01,73.23,27.24,71.5z M26.85,70.48
			c-1.09,0.3-2.35,0.64-3.71,1.01c-0.36-4.84-0.6-8.09-0.61-8.2c-0.04-1.57,0.35-3.07,0.8-3.08c0.65-0.03,1.63,0.25,2.12,0.42
			l7.61,2.25l157.05,49.06c0.15,0.07,3.66,1.8,5.96,7.34c2.37,5.73,1.65,19.3,1.61,19.89l0.13,41.88c0,0.04-0.19,4.16-3.01,5.99
			c-2.03,1.32-4.97,1.21-8.73-0.32C175.86,182.57,71.75,140.88,39.58,128l0,0l-0.16-0.07c-0.1-0.04-0.2-0.08-0.3-0.12l-0.01,0l0,0
			c-2.4-0.96-5.42-2.14-7.25-2.86l-1.02-0.4c-0.99-0.91-2.15-2.64-3.14-4.66l9.42-3.11l0.44-0.14l-1.83-45.61l-4.68-1.69l-0.06,0.02
			C30.71,69.43,29.14,69.86,26.85,70.48z M8.68,124.38L6.81,81.47h0l0-0.2c0-0.02,0-0.12-0.02-0.35l-0.03-0.69l27.78-7.86l1.75,43.4
			l-27.59,9.1C8.73,124.65,8.71,124.49,8.68,124.38z M30.09,125.52l0.06,0.05l0.65,0.27c1.35,0.53,5.38,2.11,8.07,3.18
			c31.86,12.76,136.5,54.66,146.74,58.83c2.16,0.88,4.11,1.32,5.8,1.32c1.56,0,2.92-0.38,4.06-1.12c3.38-2.2,3.55-6.79,3.56-6.99
			l-0.13-41.86c0.03-0.58,0.81-14.31-1.7-20.39c-2.56-6.18-6.44-7.93-6.6-8l-0.03-0.01L32.83,61.53l0,0l-0.09-0.03l-0.14-0.04
			l-0.26-0.08v0.01l-6.51-1.91c-0.15-0.05-1.52-0.52-2.55-0.48c-1.99,0.08-1.99,3.64-1.97,4.36c0.01,0.13,0.26,3.48,0.63,8.46
			c-0.43,0.12-0.87,0.24-1.32,0.36c-0.53-7.71-0.91-13.47-0.95-13.92c0.01-0.45,0.23-11.17,1.01-14.09
			c0.34-1.28,1.27-5.78,2.26-10.56c1.28-6.18,2.86-13.87,3.15-14.35c0.23-0.38,0.45-0.77,0.68-1.17c1.06-1.87,2.16-3.79,3.92-4.76
			c1.71-0.95,3.63-1.5,4.75-1.76l161.9,39.21c0.09,0.02,9.11,1.67,12.66,7.2c3.7,5.76,3.87,7.4,4.26,11.35
			c0.36,3.58,0.09,83.2,0,107.52l0,0.95c0.13,1.78,0.01,3.8-0.38,4.96c-7.83,4.48-13.6,7.76-14.35,8.19l-0.12,0.07l-0.13,0.15
			c-0.02,0.03-2.21,2.69-9.83-0.28c-7.76-3.03-134.81-54.26-160.21-64.5l-0.44-0.18c-0.42-0.33-2.26-1.92-3.68-5.48l1.33-0.44
			C27.52,122.85,30.06,125.49,30.09,125.52z M264.79,153.03c-3.13,2.31-31.14,18.42-49.46,28.9c0.31-1.81,0.18-3.83,0.15-4.18
			c0.02-4.26,0.41-104.38,0-108.54c-0.42-4.16-0.59-5.88-4.45-11.88c-3.85-5.99-13.06-7.66-13.44-7.73L38.43,11.04
			C47.62,9.52,83.9,3.2,91.84,1.82c0.15-0.03,3.76-0.74,10.21,0.83c6.7,1.63,151.66,32.89,157.8,34.21
			c0.59,0.21,5.81,2.19,7.82,5.84c2.14,3.89,3.01,8.1,3.01,14.54c0,5.3-1.14,61.23-1.63,85.03l-0.03,1.44
			C269.03,143.77,269.13,149.82,264.79,153.03z"/>
		<path class="st0" d="M90.07,135.72l1.77,3.02l3.31,1.28l0.17-0.03c0.06-0.01,0.63-0.12,1.02-0.55c0.51-0.56,0.54-1.37,0.54-1.53
			c-0.11-4.64-1.08-45.37-1.21-46.25c-0.19-1.21-1.14-1.49-1.32-1.52l-3.4-1.12l-0.08-0.02c-0.07-0.01-0.74-0.1-1.24,0.32
			c-0.24,0.2-0.48,0.65-0.6,0.9l-0.06,0.13l1.09,45.2L90.07,135.72z M90.2,90.64c0.11-0.21,0.21-0.36,0.23-0.38
			c0.03-0.03,0.13-0.05,0.22-0.04l3.35,1.1l0.07,0.02c0.03,0.01,0.31,0.08,0.38,0.51c0.11,0.84,0.83,30.52,1.2,46.08
			c0,0.14-0.05,0.52-0.21,0.69c-0.04,0.05-0.12,0.09-0.21,0.13l-2.56-1l-1.4-2.38L90.2,90.64z"/>
		<path class="st0" d="M106.22,142.11l1.82,3.1l3.41,1.32l0.17-0.03c0.11-0.02,0.65-0.13,1.04-0.56c0.53-0.57,0.55-1.4,0.55-1.57
			c-0.11-4.79-1.11-46.87-1.25-47.78c-0.19-1.24-1.17-1.52-1.35-1.56l-3.51-1.15l-0.08-0.02c-0.12-0.02-0.77-0.1-1.26,0.33
			c-0.24,0.21-0.49,0.67-0.61,0.92l-0.06,0.13l1.12,46.69L106.22,142.11z M106.31,95.53c0.12-0.22,0.22-0.38,0.24-0.4
			c0.04-0.04,0.15-0.05,0.24-0.05l3.47,1.14l0.07,0.02c0.03,0.01,0.34,0.08,0.41,0.55c0.11,0.86,0.86,31.52,1.24,47.61
			c0,0.16-0.06,0.55-0.23,0.73c-0.05,0.05-0.13,0.1-0.23,0.14l-2.66-1.03l-1.45-2.47L106.31,95.53z"/>
		<path class="st0" d="M122.8,148.06l1.85,3.14l3.45,1.34l0.17-0.03c0.07-0.01,0.65-0.12,1.05-0.56c0.53-0.57,0.56-1.42,0.56-1.59
			c-0.11-4.86-1.13-47.52-1.27-48.45c-0.19-1.25-1.18-1.53-1.36-1.57l-3.56-1.17l-0.08-0.02c-0.08-0.01-0.76-0.11-1.27,0.33
			c-0.25,0.21-0.49,0.68-0.62,0.93l-0.06,0.13l1.14,47.35L122.8,148.06z M122.88,100.83c0.12-0.22,0.23-0.39,0.25-0.41
			c0.04-0.03,0.15-0.06,0.26-0.05l3.51,1.15l0.07,0.02c0.04,0.01,0.36,0.08,0.43,0.57c0.11,0.87,0.87,31.97,1.26,48.28
			c0,0.16-0.06,0.56-0.23,0.75c-0.05,0.05-0.14,0.11-0.24,0.15l-2.7-1.05l-1.47-2.51L122.88,100.83z"/>
		<path class="st0" d="M142.08,157.88l3.76,1.39l0.15-0.02c0.11-0.02,0.7-0.12,1.13-0.54c0.6-0.57,0.64-1.44,0.64-1.61
			c-0.07-4.93-0.65-48.17-0.8-49.1c-0.17-1.08-1.01-1.52-1.46-1.6l-3.93-1.23l-0.07-0.02c-0.08-0.01-0.79-0.12-1.33,0.3
			c-0.28,0.21-0.58,0.72-0.69,0.93l-0.08,0.14l0.67,48.16L142.08,157.88z M140.63,106.83c0.13-0.23,0.25-0.39,0.28-0.41
			c0.08-0.06,0.26-0.07,0.37-0.07l3.9,1.22l0.07,0.02c0.04,0.01,0.43,0.1,0.51,0.59c0.11,0.9,0.56,32.4,0.78,48.92
			c0,0.15-0.07,0.55-0.27,0.74c-0.07,0.07-0.19,0.13-0.33,0.18l-3.05-1.12l-1.6-2.56L140.63,106.83z"/>
		<path class="st0" d="M158.47,161.77l2.19,3.29l4.05,1.42l0.05,0.02l0.14-0.02c0.07-0.01,0.73-0.11,1.21-0.52
			c0.66-0.58,0.71-1.47,0.72-1.65c-0.07-8.23-0.41-49.34-0.56-50.27c-0.18-1.1-1.08-1.55-1.56-1.64l-4.34-1.3l-0.07-0.02
			c-0.14-0.02-0.84-0.11-1.4,0.28c-0.31,0.21-0.63,0.73-0.76,0.94l-0.09,0.15l0.43,49.14L158.47,161.77z M159.27,112.79
			c0.15-0.23,0.29-0.4,0.32-0.42c0.12-0.08,0.37-0.09,0.47-0.09l4.33,1.3l0.06,0.01c0.02,0,0.52,0.1,0.61,0.63
			c0.12,0.94,0.41,33.17,0.55,50.08c-0.01,0.14-0.07,0.55-0.3,0.75c-0.11,0.09-0.29,0.16-0.44,0.2l-3.42-1.2l-1.76-2.65
			L159.27,112.79z"/>
		<path class="st0" d="M177.57,169.13l2.17,3.36l4.1,1.48l0.15-0.02c0.07-0.01,0.74-0.11,1.21-0.53c0.66-0.59,0.71-1.49,0.72-1.67
			c-0.03-8.39-0.21-50.31-0.35-51.25c-0.17-1.11-1.07-1.57-1.56-1.66l-4.33-1.34l-0.07-0.02c-0.14-0.02-0.85-0.11-1.41,0.28
			c-0.3,0.21-0.63,0.74-0.76,0.95l-0.09,0.14l0.22,50.09L177.57,169.13z M178.57,119.19c0.15-0.23,0.29-0.41,0.33-0.44
			c0.12-0.08,0.36-0.09,0.46-0.09l4.33,1.33l0.06,0.01c0.05,0.01,0.53,0.11,0.61,0.65c0.11,0.88,0.26,31.03,0.34,51.06
			c0,0.16-0.09,0.57-0.31,0.77c-0.11,0.09-0.28,0.16-0.43,0.2l-3.41-1.23l-1.76-2.71L178.57,119.19z"/>
	</g>
</g>
</svg>
