<?xml version="1.0" encoding="utf-8"?>
<!-- Generator: Adobe Illustrator 23.0.1, SVG Export Plug-In . SVG Version: 6.00 Build 0)  -->
<svg version="1.1" id="Layer_1" xmlns="http://www.w3.org/2000/svg" xmlns:xlink="http://www.w3.org/1999/xlink" x="0px" y="0px"
	 viewBox="0 0 211.65 38.29" style="enable-background:new 0 0 211.65 38.29;" xml:space="preserve">
<style type="text/css">
	.st0{fill:#00BC70;}
</style>
<g>
	<g>
		<path class="st0" d="M30.62,8.65c0.75-4.19-2-6.87-7.39-6.87h-3.74h-1.72H9.21L4.23,17.17h2.12L0,31.73l16.75-19.21h-4.17
			l3.63-5.65h4.86c2.11,0,3.09,1.02,2.79,2.87c-0.3,1.81-1.66,2.79-3.81,2.79h-0.71l-4.05,4.64h4.41c2.15,0,3.28,1.13,2.91,3.02
			c-0.34,1.92-1.7,2.94-3.89,2.94h-8.63l-4.47,5.13h13.33c5.58,0,9.32-2.83,10.07-7.21c0.53-3.02-1.02-5.73-3.96-6.38
			C27.79,13.93,30.05,11.85,30.62,8.65z"/>
		<polygon class="st0" points="10.1,23.13 5.62,28.26 5.63,28.26 10.11,23.13 		"/>
	</g>
	<g>
		<path class="st0" d="M41.76,6.63c3.08,0,5.01,1.45,5.78,3.31l0.54-3.01l6.34,0l-3.8,21.25l-6.34,0l0.54-3.01
			c-1.48,1.87-3.93,3.31-7.01,3.31c-5.04,0-8.32-4.27-7.12-10.97C31.89,10.82,36.68,6.63,41.76,6.63z M42.6,12.3
			c-2.37,0-4.85,1.83-5.46,5.22c-0.61,3.39,1.2,5.29,3.58,5.29c2.41,0,4.86-1.87,5.46-5.25C46.79,14.17,45.01,12.3,42.6,12.3z"/>
		<path class="st0" d="M57.75,12.34l-2.52,0l0.97-5.41l2.52,0l0.93-5.18l6.34,0l-0.93,5.18l4.15,0l-0.97,5.41l-4.15,0l-1.53,8.53
			c-0.23,1.26,0.2,1.79,1.61,1.79l2.26,0l-0.99,5.52l-3.23,0c-4.3,0-6.97-1.87-5.98-7.39L57.75,12.34z"/>
		<path class="st0" d="M72.26,12.35l-2.52,0l0.97-5.41l2.52,0l0.93-5.18l6.34,0l-0.93,5.18l4.15,0l-0.97,5.41l-4.15,0l-1.53,8.53
			c-0.23,1.26,0.2,1.79,1.61,1.79l2.26,0l-0.99,5.52l-3.23,0c-4.3,0-6.97-1.87-5.98-7.39L72.26,12.35z"/>
		<path class="st0" d="M91.82,28.5c-6.08,0-9.7-4.19-8.5-10.93c1.21-6.74,6.26-10.93,12.41-10.93c6.04,0,9.57,4.11,8.41,10.59
			c-0.11,0.61-0.26,1.26-0.45,1.9l-14.35,0c-0.28,2.78,1.16,4.08,3.2,4.08c1.78,0,2.94-0.91,3.67-2.06l6.75,0
			C101.22,25.3,96.98,28.5,91.82,28.5z M90.03,15.51l7.93,0c0.42-2.32-1.12-3.66-3.24-3.66C92.65,11.85,90.83,13.15,90.03,15.51z"/>
		<path class="st0" d="M111.31,28.2l-6.34,0l3.8-21.25l6.34,0l-0.63,3.54c1.85-2.25,4.38-3.77,7.16-3.77l-1.23,6.89l-1.74,0
			c-3,0-4.94,1.07-5.59,4.72L111.31,28.2z"/>
		<path class="st0" d="M139.11,6.95l6.86,0l-18.59,31.34l-6.82,0l6.68-10.81L122.5,6.95l7.08,0l2.4,13.29L139.11,6.95z"/>
		<path class="st0" d="M160.37,6.65c5.12,0,8.37,4.19,7.17,10.89c-1.2,6.7-6,10.97-11.08,10.97c-3.04,0-4.97-1.41-5.79-3.28
			l-0.53,2.97l-6.34,0l5.04-28.18l6.34,0l-1.78,9.94C154.89,8.06,157.41,6.65,160.37,6.65z M157.47,12.32
			c-2.37,0-4.86,1.87-5.46,5.25c-0.61,3.39,1.21,5.26,3.58,5.26c2.41,0,4.9-1.9,5.51-5.29C161.7,14.15,159.88,12.32,157.47,12.32z"
			/>
		<path class="st0" d="M177.15,28.51c-6.08,0-9.93-4.19-8.72-10.93c1.21-6.74,6.66-10.93,12.71-10.93c6.08,0,10,4.19,8.79,10.93
			C188.72,24.33,183.23,28.51,177.15,28.51z M178.16,22.88c2.26,0,4.68-1.71,5.32-5.29c0.65-3.62-1.13-5.29-3.35-5.29
			c-2.3,0-4.6,1.67-5.25,5.29C174.24,21.16,175.86,22.88,178.16,22.88z"/>
		<path class="st0" d="M198,22.31l-4.39,5.9l-6.86,0l8.76-10.85l-5.15-10.4l7.12,0l2.92,5.87l4.39-5.86l6.86,0l-8.85,10.7
			l5.23,10.55l-7.12,0L198,22.31z"/>
	</g>
</g>
</svg>
