<?xml version="1.0" encoding="utf-8"?>
<!-- Generator: Adobe Illustrator 23.0.1, SVG Export Plug-In . SVG Version: 6.00 Build 0)  -->
<svg version="1.1" id="Layer_1" xmlns="http://www.w3.org/2000/svg" xmlns:xlink="http://www.w3.org/1999/xlink" x="0px" y="0px"
	 viewBox="0 0 24 20.5" style="enable-background:new 0 0 24 20.5;" xml:space="preserve">
<style type="text/css">
	.st0{fill:#010101;}
</style>
<g>
	<g>
		<path class="st0" d="M7.5,20.5c-0.13,0-0.26-0.05-0.35-0.15l-7-7c-0.2-0.2-0.2-0.51,0-0.71l3.5-3.5c0.2-0.2,0.51-0.2,0.71,0
			l3.15,3.15L19.65,0.15c0.2-0.2,0.51-0.2,0.71,0l3.5,3.5c0.2,0.2,0.2,0.51,0,0.71l-16,16C7.76,20.45,7.63,20.5,7.5,20.5z M1.21,13
			l6.29,6.29L22.79,4L20,1.21L7.85,13.35c-0.2,0.2-0.51,0.2-0.71,0L4,10.21L1.21,13z"/>
	</g>
</g>
</svg>
