<?xml version="1.0" encoding="utf-8"?>
<!-- Generator: Adobe Illustrator 23.0.1, SVG Export Plug-In . SVG Version: 6.00 Build 0)  -->
<svg version="1.1" id="Layer_1" xmlns="http://www.w3.org/2000/svg" xmlns:xlink="http://www.w3.org/1999/xlink" x="0px" y="0px"
	 viewBox="0 0 19.2 14.94" style="enable-background:new 0 0 19.2 14.94;" xml:space="preserve">
<path d="M5.96,0.51L0.49,6.24C0.17,6.56-0.01,7,0,7.46c-0.01,0.46,0.17,0.9,0.49,1.22l5.47,5.75c0.61,0.65,1.63,0.68,2.28,0.08
	c0.03-0.02,0.05-0.05,0.08-0.08c0.65-0.69,0.65-1.77,0-2.47L5.7,9.22h11.84c0.94-0.02,1.69-0.8,1.67-1.75
	c0.02-0.94-0.73-1.72-1.67-1.74H5.7l2.63-2.75c0.65-0.69,0.65-1.77,0-2.46C7.71-0.14,6.69-0.17,6.04,0.44
	C6.01,0.46,5.99,0.49,5.96,0.51z"/>
</svg>
