<?xml version="1.0" encoding="utf-8"?>
<!-- Generator: Adobe Illustrator 23.0.1, SVG Export Plug-In . SVG Version: 6.00 Build 0)  -->
<svg version="1.1" id="Layer_1" xmlns="http://www.w3.org/2000/svg" xmlns:xlink="http://www.w3.org/1999/xlink" x="0px" y="0px"
	 viewBox="0 0 42 39.1" style="enable-background:new 0 0 42 39.1;" xml:space="preserve">
<g>
	<g>
		<path d="M2.4,39.1c-0.2,0-0.5-0.1-0.6-0.3c-0.3-0.3-0.3-0.7-0.2-1l4.2-8.4C2.1,26.2,0,22,0,17.5C0,7.9,9.4,0.2,21,0.2
			s21,7.8,21,17.3s-9.4,17.3-21,17.3c-2.4,0-4.7-0.3-7-1L2.8,39C2.6,39.1,2.5,39.1,2.4,39.1z M21,1.9c-10.6,0-19.3,7-19.3,15.5
			c0,4.2,2,8.1,5.7,11c0.3,0.3,0.4,0.7,0.2,1.1l-3.4,6.8l9.3-4.3c0.2-0.1,0.4-0.1,0.6,0c2.2,0.7,4.5,1,6.8,1
			c10.6,0,19.3-7,19.3-15.5S31.6,1.9,21,1.9z"/>
	</g>
	<g>
		<path d="M24.5,14.4H13.1c-0.5,0-0.9-0.4-0.9-0.9s0.4-0.9,0.9-0.9h11.4c0.5,0,0.9,0.4,0.9,0.9S25,14.4,24.5,14.4z"/>
	</g>
	<g>
		<path d="M29.8,19.7H13.1c-0.5,0-0.9-0.4-0.9-0.9s0.4-0.9,0.9-0.9h16.6c0.5,0,0.9,0.4,0.9,0.9S30.2,19.7,29.8,19.7z"/>
	</g>
	<g>
		<path d="M29.8,24.9H13.1c-0.5,0-0.9-0.4-0.9-0.9s0.4-0.9,0.9-0.9h16.6c0.5,0,0.9,0.4,0.9,0.9S30.2,24.9,29.8,24.9z"/>
	</g>
</g>
</svg>
