<?xml version="1.0" encoding="utf-8"?>
<!-- Generator: Adobe Illustrator 23.0.1, SVG Export Plug-In . SVG Version: 6.00 Build 0)  -->
<svg version="1.1" id="Laag_1" xmlns="http://www.w3.org/2000/svg" xmlns:xlink="http://www.w3.org/1999/xlink" x="0px" y="0px"
	 viewBox="0 0 19.36 39.94" style="enable-background:new 0 0 19.36 39.94;" xml:space="preserve">
<style type="text/css">
	.st0{fill:#00BC70;}
</style>
<g>
	<path class="st0" d="M3.99,39.94l-0.5-0.01c-2.13-0.09-3.17-1.8-3.46-2.8L0,36.86V3.76l3.03-3.72l0.91-0.05l0,0.02l10.09-0.03
		l5.34,3.49v33.45c0,1.93-2.73,2.8-3.28,2.96l-0.25,0.04l-0.47,0.01H3.99z M2,36.7c0.12,0.32,0.55,1.19,1.56,1.23l0.46,0.01
		l11.63-0.01c0.87-0.27,1.65-0.77,1.71-1.01l0-32.36l-3.93-2.57L4,2.01L2,4.47V36.7z"/>
</g>
</svg>
