<?xml version="1.0" encoding="utf-8"?>
<!-- Generator: Adobe Illustrator 23.0.1, SVG Export Plug-In . SVG Version: 6.00 Build 0)  -->
<svg version="1.1" id="Layer_1" xmlns="http://www.w3.org/2000/svg" xmlns:xlink="http://www.w3.org/1999/xlink" x="0px" y="0px"
	 viewBox="0 0 19.7 18.2" style="enable-background:new 0 0 19.7 18.2;" xml:space="preserve">
<style type="text/css">
	.st0{fill:#242E42;}
</style>
<path id="menu" class="st0" d="M18.1,18.2H1.7c-0.9,0-1.7-0.7-1.7-1.7c0-0.9,0.7-1.7,1.7-1.7c0,0,0,0,0,0h16.4
	c0.9,0,1.7,0.7,1.7,1.7S19,18.2,18.1,18.2C18.1,18.2,18.1,18.2,18.1,18.2L18.1,18.2z M18.1,10.8H1.7C0.7,10.8,0,10,0,9.1
	c0-0.9,0.7-1.7,1.7-1.7h16.4c0.9,0,1.7,0.7,1.7,1.7C19.7,10,19,10.8,18.1,10.8L18.1,10.8z M18.1,3.3H1.7C0.7,3.4,0,2.6,0,1.7
	S0.7,0,1.6,0c0,0,0.1,0,0.1,0h16.4c0.9,0,1.7,0.7,1.7,1.7S19,3.3,18.1,3.3L18.1,3.3z"/>
</svg>
