<?xml version="1.0" encoding="utf-8"?>
<!-- Generator: Adobe Illustrator 23.0.1, SVG Export Plug-In . SVG Version: 6.00 Build 0)  -->
<svg version="1.1" id="Layer_1" xmlns="http://www.w3.org/2000/svg" xmlns:xlink="http://www.w3.org/1999/xlink" x="0px" y="0px"
	 viewBox="0 0 12.36 15.05" style="enable-background:new 0 0 12.36 15.05;" xml:space="preserve">
<style type="text/css">
	.st0{fill:#00BC70;}
	.st1{fill:#FFFFFF;}
</style>
<g>
	<path class="st0" d="M11.87,0H0.48C0.22,0,0,0.22,0,0.48v11.39c0,0.27,0.22,0.48,0.48,0.48h4.14l1.56,2.7l1.56-2.7h4.14
		c0.27,0,0.48-0.22,0.48-0.48V0.48C12.36,0.22,12.14,0,11.87,0z"/>
	<g>
		<path class="st1" d="M11.42,3.7c0.26-1.44-0.69-2.36-2.54-2.36H7.59H7H4.06L2.35,6.63h0.73l-2.18,5l5.76-6.6H5.22l1.25-1.94h1.67
			c0.73,0,1.06,0.35,0.96,0.99C9,4.7,8.53,5.03,7.79,5.03H7.55l-1.39,1.6h1.52c0.74,0,1.13,0.39,1,1.04
			C8.56,8.33,8.09,8.68,7.34,8.68H4.37l-1.54,1.76h4.58c1.92,0,3.2-0.97,3.46-2.48c0.18-1.04-0.35-1.97-1.36-2.19
			C10.45,5.51,11.23,4.8,11.42,3.7z"/>
		<polygon class="st1" points="4.37,8.83 2.82,10.59 2.83,10.59 4.37,8.83 		"/>
	</g>
</g>
</svg>
