<?xml version="1.0" encoding="utf-8"?>
<!-- Generator: Adobe Illustrator 23.0.1, SVG Export Plug-In . SVG Version: 6.00 Build 0)  -->
<svg version="1.1" id="Layer_1" xmlns="http://www.w3.org/2000/svg" xmlns:xlink="http://www.w3.org/1999/xlink" x="0px" y="0px"
	 viewBox="0 0 20.44 20.44" style="enable-background:new 0 0 20.44 20.44;" xml:space="preserve">
<style type="text/css">
	.st0{fill:#010101;}
</style>
<g>
	<path class="st0" d="M9.93,13.43c-0.17,0.17-0.17,0.45,0,0.63c0.09,0.09,0.2,0.13,0.31,0.13c0.11,0,0.23-0.04,0.31-0.13l3.55-3.55
		c0.04-0.04,0.07-0.09,0.1-0.14c0.04-0.11,0.04-0.23,0-0.34c-0.02-0.05-0.06-0.1-0.1-0.14l-3.55-3.55c-0.17-0.17-0.45-0.17-0.63,0
		c-0.17,0.17-0.17,0.45,0,0.63l2.79,2.79H0.49c-0.25,0-0.44,0.2-0.44,0.44s0.2,0.44,0.44,0.44h12.23L9.93,13.43z"/>
	<path class="st0" d="M10.24,0C6.25,0,2.61,2.35,0.96,5.98c-0.1,0.22,0,0.49,0.22,0.59c0.23,0.1,0.49,0,0.59-0.22
		c1.51-3.32,4.84-5.46,8.48-5.46c5.13,0,9.31,4.18,9.31,9.31s-4.18,9.31-9.31,9.31c-3.66,0-7-2.16-8.5-5.5
		c-0.1-0.22-0.36-0.32-0.59-0.22c-0.22,0.1-0.32,0.36-0.22,0.59c1.64,3.66,5.3,6.03,9.31,6.03c5.62,0,10.2-4.57,10.2-10.2
		S15.87,0,10.24,0z"/>
</g>
</svg>
