<?xml version="1.0" encoding="utf-8"?>
<!-- Generator: Adobe Illustrator 23.0.1, SVG Export Plug-In . SVG Version: 6.00 Build 0)  -->
<svg version="1.1" id="Layer_1" xmlns="http://www.w3.org/2000/svg" xmlns:xlink="http://www.w3.org/1999/xlink" x="0px" y="0px"
	 viewBox="0 0 24 16.94" style="enable-background:new 0 0 24 16.94;" xml:space="preserve">
<style type="text/css">
	.st0{fill:#010101;}
</style>
<g>
	<path class="st0" d="M23.5,0h-23C0.22,0,0,0.22,0,0.5v16C0,16.78,0.22,17,0.5,17h4C4.78,17,5,16.78,5,16.5v-0.75
		c0-0.69,0.56-1.25,1.25-1.25s1.25,0.56,1.25,1.25v0.75C7.5,16.78,7.72,17,8,17h8c0.28,0,0.5-0.22,0.5-0.5v-0.75
		c0-0.69,0.56-1.25,1.25-1.25S19,15.06,19,15.75v0.75c0,0.28,0.22,0.5,0.5,0.5h4c0.28,0,0.5-0.22,0.5-0.5v-16
		C24,0.22,23.78,0,23.5,0z M23,16h-3v-0.25c0-1.24-1.01-2.25-2.25-2.25s-2.25,1.01-2.25,2.25V16h-7v-0.25
		c0-1.24-1.01-2.25-2.25-2.25S4,14.51,4,15.75V16H1V1h22V16z"/>
	<path class="st0" d="M3.5,11h7c0.28,0,0.5-0.22,0.5-0.5c0-1.24-0.63-2.63-2.26-3.21C9.21,6.83,9.5,6.2,9.5,5.5C9.5,4.12,8.38,3,7,3
		S4.5,4.12,4.5,5.5c0,0.7,0.29,1.33,0.76,1.79C3.63,7.87,3,9.26,3,10.5C3,10.78,3.22,11,3.5,11z M5.5,5.5C5.5,4.67,6.17,4,7,4
		s1.5,0.67,1.5,1.5S7.83,7,7,7S5.5,6.33,5.5,5.5z M7,8c2.21,0,2.8,1.21,2.95,2H4.05C4.2,9.21,4.79,8,7,8z"/>
	<rect x="13" y="10" class="st0" width="8" height="1"/>
	<rect x="13" y="8" class="st0" width="8" height="1"/>
	<rect x="13" y="6" class="st0" width="8" height="1"/>
	<rect x="13" y="4" class="st0" width="4" height="1"/>
</g>
</svg>
