<?xml version="1.0" encoding="utf-8"?>
<!-- Generator: Adobe Illustrator 23.0.1, SVG Export Plug-In . SVG Version: 6.00 Build 0)  -->
<svg version="1.1" id="Layer_1" xmlns="http://www.w3.org/2000/svg" xmlns:xlink="http://www.w3.org/1999/xlink" x="0px" y="0px"
	 viewBox="0 0 50 26.7" style="enable-background:new 0 0 50 26.7;" xml:space="preserve">
<style type="text/css">
	.st0{fill:#506E8E;}
</style>
<g id="Sign_In_2_">
	<g id="txt" transform="translate(20 152)">
		<g id="Pass" transform="translate(0 58)">
			<g id="eye_icon" transform="translate(293 18)">
				<g id="Stroke_1">
					<path class="st0" d="M-287.9-201.3c-9.7-0.1-19-4.8-24.8-12.6c-0.2-0.3-0.2-0.8,0-1.1c5.8-7.8,15-12.6,24.7-12.6c0,0,0,0,0,0
						c9.7,0.1,19,4.8,24.7,12.6c0.2,0.3,0.2,0.8,0,1.1C-269-206.1-278.2-201.4-287.9-201.3z M-310.7-214.5
						c5.4,7,13.9,11.2,22.8,11.3c8.9-0.1,17.3-4.3,22.8-11.3c-5.4-7-13.9-11.2-22.8-11.3C-296.8-225.7-305.3-221.5-310.7-214.5z"/>
				</g>
				<g id="Stroke_3">
					<path class="st0" d="M-287.8-205.8c-0.1,0-0.1,0-0.2,0c-4.8,0-8.8-3.9-8.8-8.7c0.1-4.9,4-8.8,8.8-8.8c0.1,0,0.1,0,0.2,0
						c2.3,0,4.5,0.9,6.2,2.5c1.7,1.7,2.6,3.9,2.7,6.2c0,0,0,0,0,0C-279-209.7-283-205.8-287.8-205.8z M-287.9-207.7c3.9,0,7-3,7-6.8
						c0-1.8-0.8-3.6-2.1-4.9c-1.3-1.3-3.1-2-4.9-2c0,0-0.1,0-0.1,0c-3.8,0-6.9,3.1-7,6.9C-294.9-210.7-291.8-207.7-287.9-207.7
						C-288-207.7-288-207.7-287.9-207.7z"/>
				</g>
				<g id="Stroke_5">
					<path class="st0" d="M-291.4-213.6C-291.4-213.6-291.4-213.6-291.4-213.6c-0.5,0-1-0.4-1-1c0-2.4,2-4.3,4.3-4.3c0,0,0,0,0.1,0
						c0.5,0,0.9,0.4,0.9,1c0,0.5-0.4,0.9-1,0.9c0,0,0,0,0,0c-1.3,0-2.4,1.1-2.4,2.4C-290.4-214-290.8-213.6-291.4-213.6z"/>
				</g>
			</g>
		</g>
	</g>
</g>
</svg>
