<?xml version="1.0" encoding="utf-8"?>
<!-- Generator: Adobe Illustrator 23.0.1, SVG Export Plug-In . SVG Version: 6.00 Build 0)  -->
<svg version="1.1" id="Layer_1" xmlns="http://www.w3.org/2000/svg" xmlns:xlink="http://www.w3.org/1999/xlink" x="0px" y="0px"
	 viewBox="0 0 18.57 20.44" style="enable-background:new 0 0 18.57 20.44;" xml:space="preserve">
<style type="text/css">
	.st0{fill:#010101;}
</style>
<g>
	<path class="st0" d="M18.04,20.44H0.49C0.22,20.44,0,20.22,0,19.95c0-0.14,0.01-3.36,0.49-4.81c0.4-1.22,2.6-2.01,5.14-2.92
		c0.4-0.14,0.8-0.29,1.2-0.44v-1.77C6.01,9.61,4.88,8.6,4.88,6.76V4.81C4.87,4.79,4.85,4.7,4.82,4.59c-0.19-0.73-0.54-2.1,0.15-2.83
		c0.28-0.3,0.68-0.43,1.19-0.41C6.73,0.36,8.36,0,9.69,0c1.51,0,3.38,0.46,3.7,1.76c0.27,1.07-0.23,2.14-0.55,2.77
		c0.35,0.25,0.56,0.7,0.56,1.25c0,0.64-0.29,1.15-0.74,1.36c-0.08,1.65-0.64,2.44-0.97,2.77v1.87c0.44,0.16,0.88,0.32,1.3,0.47
		c2.59,0.93,4.63,1.67,5.03,2.88c0.48,1.45,0.49,4.68,0.49,4.82C18.53,20.22,18.31,20.44,18.04,20.44z M0.98,19.47h16.56
		c-0.02-0.95-0.1-3.03-0.43-4.02c-0.26-0.77-2.38-1.53-4.44-2.27c-0.53-0.19-1.08-0.39-1.63-0.6c-0.19-0.07-0.32-0.25-0.32-0.46
		V9.68c0-0.17,0.09-0.33,0.23-0.41l0,0c0,0,0.74-0.55,0.74-2.51c0-0.27,0.22-0.49,0.49-0.49c0.17,0,0.24-0.29,0.24-0.49
		c0-0.2-0.08-0.49-0.24-0.49c-0.27,0-0.49-0.22-0.49-0.49c0-0.18,0.08-0.33,0.22-0.61c0.25-0.5,0.72-1.42,0.53-2.2
		c-0.14-0.58-1.33-1.02-2.76-1.02S7.08,1.41,6.93,2C6.87,2.25,6.62,2.41,6.36,2.36c-0.2-0.04-0.55-0.08-0.69,0.07
		C5.35,2.77,5.66,3.95,5.76,4.35c0.06,0.23,0.09,0.35,0.09,0.46v1.95c0,1.92,1.54,2.44,1.61,2.46C7.66,9.28,7.8,9.47,7.8,9.68v2.44
		c0,0.2-0.13,0.38-0.31,0.46c-0.5,0.19-1.02,0.38-1.53,0.56c-1.91,0.69-4.29,1.55-4.54,2.31C1.08,16.44,1,18.52,0.98,19.47z"/>
</g>
</svg>
