<?xml version="1.0" encoding="utf-8"?>
<!-- Generator: Adobe Illustrator 23.0.1, SVG Export Plug-In . SVG Version: 6.00 Build 0)  -->
<svg version="1.1" id="Layer_1" xmlns="http://www.w3.org/2000/svg" xmlns:xlink="http://www.w3.org/1999/xlink" x="0px" y="0px"
	 viewBox="0 0 59 59" style="enable-background:new 0 0 59 59;" xml:space="preserve">
<style type="text/css">
	.st0{fill:#4E6C8D;}
	.st1{fill:#FFFFFF;}
</style>
<g>
	<g transform="matrix(1, 0, 0, 1, -97, -222)">
		<g id="Oval-3">
			<circle class="st0" cx="126.5" cy="251.5" r="28.5"/>
			<path class="st1" d="M126.5,281c-16.27,0-29.5-13.23-29.5-29.5s13.23-29.5,29.5-29.5s29.5,13.23,29.5,29.5S142.77,281,126.5,281z
				 M126.5,224c-15.16,0-27.5,12.34-27.5,27.5s12.34,27.5,27.5,27.5s27.5-12.34,27.5-27.5S141.66,224,126.5,224z"/>
		</g>
	</g>
	<g id="Shape-4">
		<path class="st1" d="M43.84,20.94L30.74,44.27c-0.23,0.47-0.72,0.76-1.24,0.73c-0.11,0-0.22-0.02-0.33-0.04
			c-0.31-0.06-0.58-0.23-0.77-0.47c-0.19-0.23-0.3-0.52-0.29-0.82l0.3-12.36l-13.01-3.46c-0.31,0-0.61-0.1-0.86-0.28
			c-0.25-0.18-0.42-0.44-0.49-0.74c-0.15-0.61,0.15-1.24,0.72-1.5l27.2-6.18c0.2-0.1,0.42-0.15,0.64-0.15
			c0.37-0.01,0.72,0.14,0.98,0.4C44.02,19.79,44.13,20.43,43.84,20.94L43.84,20.94z"/>
	</g>
</g>
</svg>
