<svg version="1.1" id="Layer_1" xmlns="http://www.w3.org/2000/svg" xmlns:xlink="http://www.w3.org/1999/xlink"
                    x="0px" y="0px" viewBox="0 0 15.05 15.05" style="enable-background:new 0 0 15.05 15.05;" xml:space="preserve">
                    <style type="text/css">
                        .st0 {
                            fill: white;
                        }
                    </style>
                    <path id="Shape-7" class="st0" d="M7.53,15.05C3.37,15.05,0,11.69,0,7.53c0-1.99,0.79-3.91,2.2-5.32c2.93-2.94,7.69-2.95,10.63-0.02
	c0.01,0.01,0.01,0.01,0.02,0.02c2.94,2.93,2.94,7.7,0.01,10.64C11.44,14.26,9.53,15.05,7.53,15.05z M7.53,1.16
	c-3.52,0-6.37,2.85-6.37,6.37s2.85,6.37,6.37,6.37s6.37-2.85,6.37-6.37C13.89,4.01,11.04,1.16,7.53,1.16z M10.73,10.65L10.73,10.65
	L6.78,8.28V3.76H7.9v3.95l3.39,1.99L10.73,10.65L10.73,10.65z" />
                </svg>