<svg version="1.1" id="Layer_1" xmlns="http://www.w3.org/2000/svg" xmlns:xlink="http://www.w3.org/1999/xlink" x="0px" y="0px"
	 viewBox="0 0 20.44 20.44" style="enable-background:new 0 0 20.44 20.44;" xml:space="preserve">
<style type="text/css">
	.st0{fill:#000;}
</style>
<g>
	<path class="st0" d="M20,9.78H7.74l2.8-2.8c0.17-0.17,0.17-0.45,0-0.63s-0.45-0.17-0.63,0L6.35,9.91C6.31,9.95,6.28,10,6.26,10.05
		c-0.04,0.11-0.04,0.23,0,0.34c0.02,0.05,0.06,0.1,0.1,0.14l3.55,3.55c0.09,0.09,0.2,0.13,0.31,0.13c0.11,0,0.23-0.04,0.31-0.13
		c0.17-0.17,0.17-0.45,0-0.63l-2.8-2.8H20c0.25,0,0.44-0.2,0.44-0.44S20.24,9.78,20,9.78z"/>
	<path class="st0" d="M19.33,13.81c-0.22-0.1-0.49,0-0.59,0.22c-1.5,3.35-4.85,5.52-8.52,5.52c-5.15,0-9.33-4.19-9.33-9.33
		c0-5.15,4.19-9.33,9.33-9.33c3.65,0,6.99,2.15,8.5,5.47c0.1,0.22,0.37,0.32,0.59,0.22c0.22-0.1,0.32-0.36,0.22-0.59
		C17.87,2.35,14.22,0,10.22,0C4.58,0,0,4.58,0,10.22c0,5.64,4.58,10.22,10.22,10.22c4.02,0,7.68-2.37,9.33-6.04
		C19.65,14.18,19.55,13.91,19.33,13.81z"/>
</g>
</svg>